<?xml version="1.0" standalone="no"?>
<!DOCTYPE svg PUBLIC "-//W3C//DTD SVG 20010904//EN"
 "http://www.w3.org/TR/2001/REC-SVG-20010904/DTD/svg10.dtd">
<svg version="1.0" xmlns="http://www.w3.org/2000/svg"
 width="2996.000000pt" height="512.000000pt" viewBox="0 0 2996.000000 512.000000"
 preserveAspectRatio="xMidYMid meet">

<g transform="translate(0.000000,512.000000) scale(0.100000,-0.100000)"
fill="#000000" stroke="none">
<path d="M3063 4812 c-84 -1 -143 -7 -143 -12 0 -6 -59 -10 -149 -10 -92 0
-151 -4 -153 -10 -2 -6 -47 -13 -101 -17 -53 -3 -97 -10 -97 -15 0 -4 -26 -8
-59 -8 -32 0 -75 -7 -94 -15 -20 -8 -57 -15 -82 -15 -25 0 -45 -4 -45 -9 0 -5
-26 -11 -57 -13 -31 -3 -59 -10 -61 -16 -2 -7 -25 -12 -53 -12 -27 0 -49 -4
-49 -9 0 -5 -18 -11 -40 -15 -22 -3 -40 -11 -40 -16 0 -6 -16 -10 -35 -10 -19
0 -35 -4 -35 -9 0 -5 -18 -11 -40 -15 -22 -3 -40 -11 -40 -16 0 -6 -14 -10
-31 -10 -17 0 -37 -7 -45 -15 -9 -8 -26 -15 -40 -15 -13 0 -24 -4 -24 -10 0
-5 -11 -10 -25 -10 -14 0 -25 -4 -25 -9 0 -5 -13 -12 -30 -16 -17 -4 -30 -11
-30 -16 0 -5 -6 -9 -14 -9 -17 0 -80 -32 -84 -42 -2 -5 -12 -8 -22 -8 -9 0
-23 -7 -30 -15 -7 -8 -19 -15 -27 -15 -13 0 -23 -7 -58 -37 -7 -7 -21 -13 -31
-13 -9 0 -27 -11 -40 -25 -13 -14 -28 -25 -34 -25 -6 0 -21 -11 -33 -24 -12
-13 -32 -26 -44 -30 -13 -4 -23 -12 -23 -17 0 -5 -5 -9 -10 -9 -6 0 -28 -17
-50 -37 -51 -49 -68 -63 -75 -63 -11 0 -165 -160 -165 -170 0 -6 -5 -10 -11
-10 -11 0 -39 -25 -39 -35 0 -4 -6 -12 -13 -20 -6 -7 -23 -27 -37 -45 -14 -18
-31 -38 -37 -45 -7 -8 -13 -16 -13 -20 0 -4 -6 -13 -12 -20 -30 -33 -38 -45
-38 -54 0 -5 -7 -11 -15 -15 -8 -3 -15 -15 -15 -26 0 -11 -4 -20 -10 -20 -5 0
-10 -7 -10 -15 0 -8 -4 -15 -10 -15 -5 0 -12 -11 -16 -25 -3 -14 -10 -25 -14
-25 -4 0 -11 -11 -14 -25 -4 -14 -11 -25 -16 -25 -6 0 -10 -7 -10 -15 0 -8 -4
-15 -10 -15 -5 0 -10 -11 -10 -25 0 -14 -4 -25 -9 -25 -5 0 -12 -11 -15 -25
-4 -14 -11 -25 -16 -25 -6 0 -10 -16 -10 -35 0 -19 -4 -35 -9 -35 -5 0 -12
-11 -15 -25 -4 -14 -11 -25 -16 -25 -6 0 -10 -13 -10 -30 0 -16 -4 -30 -9 -30
-5 0 -12 -16 -15 -35 -4 -19 -11 -35 -16 -35 -6 0 -10 -18 -10 -40 0 -22 -4
-40 -9 -40 -5 0 -11 -18 -15 -40 -3 -22 -11 -40 -16 -40 -6 0 -10 -20 -10 -45
0 -25 -4 -45 -9 -45 -5 0 -13 -25 -16 -55 -4 -30 -11 -55 -16 -55 -5 0 -9 -22
-9 -50 0 -27 -4 -50 -9 -50 -5 0 -12 -34 -16 -75 -4 -41 -11 -75 -16 -75 -5 0
-9 -40 -9 -90 0 -49 -4 -90 -9 -90 -5 0 -12 -58 -16 -130 -4 -71 -11 -130 -16
-130 -5 0 -9 -406 -9 -925 l0 -925 995 0 c639 0 996 4 1000 10 4 6 74 10 171
10 90 0 164 4 164 9 0 5 50 12 110 16 61 3 110 11 110 16 0 5 38 9 84 9 55 0
86 4 88 12 2 6 30 13 61 16 31 2 57 8 57 13 0 5 24 9 53 9 28 1 63 7 77 15 14
8 42 14 63 15 20 0 37 5 37 10 0 6 15 10 33 10 17 0 41 7 51 15 11 8 30 15 43
15 13 0 23 5 23 10 0 6 18 10 39 10 22 0 46 7 55 15 8 8 24 15 35 15 12 0 21
4 21 9 0 5 18 11 40 15 22 3 40 11 40 16 0 6 14 10 30 10 17 0 30 4 30 9 0 5
14 12 30 16 17 4 30 11 30 16 0 5 11 9 25 9 14 0 25 4 25 10 0 5 11 12 25 16
14 3 25 10 25 15 0 5 11 9 25 9 14 0 25 4 25 10 0 5 11 12 25 16 14 3 25 9 25
13 0 3 16 15 35 25 19 11 35 22 35 26 0 5 11 11 25 14 14 4 25 11 25 16 0 6 7
10 15 10 8 0 15 4 15 9 0 5 11 12 25 15 14 4 25 11 25 16 0 6 5 10 11 10 6 0
17 6 24 12 33 30 45 38 55 38 5 0 10 5 10 11 0 11 25 39 35 39 7 0 24 14 65
53 15 15 31 27 35 27 10 0 35 28 35 39 0 6 7 11 15 11 8 0 15 5 15 11 0 14 25
39 39 39 6 0 11 5 11 11 0 7 16 27 35 46 19 19 35 40 35 47 0 7 11 22 25 32
14 10 25 24 25 31 0 7 7 13 15 13 8 0 15 7 15 15 0 8 5 15 10 15 6 0 10 8 10
19 0 10 11 27 25 37 14 10 25 29 25 41 0 14 6 23 15 23 9 0 15 9 15 25 0 14 5
25 10 25 6 0 10 7 10 15 0 8 4 15 10 15 5 0 12 11 16 25 3 14 10 25 14 25 4 0
11 11 14 25 4 14 11 25 16 25 6 0 10 11 10 25 0 14 4 25 9 25 5 0 12 11 15 25
4 14 11 25 16 25 6 0 10 11 10 25 0 14 5 25 10 25 6 0 10 11 10 24 0 13 7 29
15 36 8 7 15 25 15 41 0 16 5 29 10 29 6 0 10 9 10 21 0 11 7 27 15 35 8 9 15
29 15 45 0 16 5 29 10 29 6 0 10 15 10 33 0 17 7 41 15 51 8 11 15 37 15 58 0
21 5 38 10 38 6 0 10 17 10 38 1 20 7 48 15 62 8 14 14 46 15 73 0 26 5 47 10
47 6 0 10 22 10 49 0 27 7 65 15 84 9 21 15 67 15 107 0 40 4 70 10 70 6 0 10
39 10 98 0 54 7 147 15 207 13 93 15 245 13 960 l-3 850 -905 0 c-498 0 -969
-1 -1047 -3z m857 -1462 c0 -176 -4 -320 -9 -320 -4 0 -8 -12 -8 -27 0 -71
-17 -233 -25 -233 -4 0 -8 -34 -8 -75 0 -41 -4 -75 -10 -75 -5 0 -12 -27 -16
-60 -4 -33 -11 -60 -15 -60 -5 0 -9 -18 -9 -39 0 -22 -5 -41 -11 -43 -6 -2
-13 -25 -16 -51 -3 -26 -10 -47 -14 -47 -5 0 -9 -11 -9 -25 0 -14 -4 -25 -10
-25 -5 0 -13 -18 -16 -40 -4 -22 -10 -40 -15 -40 -5 0 -9 -11 -9 -25 0 -16 -6
-25 -15 -25 -9 0 -15 -9 -15 -25 0 -14 -4 -25 -10 -25 -5 0 -10 -7 -10 -15 0
-8 -4 -15 -10 -15 -5 0 -12 -11 -16 -25 -3 -14 -9 -25 -14 -25 -4 0 -15 -16
-26 -35 -10 -19 -22 -35 -26 -35 -5 0 -8 -7 -8 -15 0 -8 -5 -15 -11 -15 -14 0
-39 -25 -39 -39 0 -6 -7 -11 -15 -11 -8 0 -15 -5 -15 -11 0 -11 -25 -39 -35
-39 -10 0 -35 -28 -35 -39 0 -6 -11 -11 -25 -11 -16 0 -25 -6 -25 -15 0 -8 -5
-15 -11 -15 -6 0 -17 -6 -24 -12 -33 -30 -45 -38 -55 -38 -5 0 -10 -4 -10 -10
0 -5 -11 -10 -25 -10 -16 0 -25 -6 -25 -15 0 -9 -9 -15 -25 -15 -14 0 -25 -4
-25 -9 0 -5 -11 -12 -25 -15 -14 -4 -25 -11 -25 -16 0 -6 -11 -10 -25 -10 -14
0 -25 -4 -25 -10 0 -5 -18 -13 -40 -16 -22 -4 -40 -10 -40 -15 0 -5 -14 -9
-31 -9 -17 0 -37 -7 -45 -15 -9 -8 -29 -15 -45 -15 -16 0 -29 -4 -29 -10 0 -5
-19 -10 -42 -10 -24 0 -52 -7 -62 -15 -11 -9 -41 -15 -68 -15 -26 0 -48 -4
-48 -10 0 -5 -20 -10 -45 -10 -25 0 -62 -7 -82 -15 -21 -9 -67 -15 -114 -15
-44 0 -79 -4 -79 -9 0 -5 -70 -12 -155 -16 -85 -4 -155 -11 -155 -16 0 -5
-196 -9 -445 -9 l-445 0 0 335 c0 217 4 335 10 335 6 0 10 33 10 78 0 42 7
108 15 147 8 38 15 89 15 112 0 24 5 43 10 43 6 0 10 25 10 56 0 36 5 61 15
70 8 9 15 33 15 55 0 21 5 39 10 39 6 0 10 13 10 29 0 16 7 36 15 45 8 8 15
28 15 45 0 17 5 31 10 31 6 0 10 11 10 25 0 14 7 28 15 31 8 4 15 17 15 30 0
13 5 24 10 24 6 0 10 11 10 25 0 16 6 25 15 25 9 0 15 9 15 25 0 14 5 25 10
25 6 0 10 5 10 10 0 10 8 22 38 55 6 7 12 18 12 24 0 6 7 11 15 11 8 0 15 5
15 11 0 6 20 32 45 57 25 25 45 49 45 54 0 4 5 8 10 8 6 0 21 11 34 25 13 14
26 25 30 25 7 0 20 10 51 38 7 6 18 12 24 12 6 0 11 7 11 15 0 9 9 15 25 15
14 0 25 4 25 8 0 5 18 17 40 28 22 10 40 22 40 27 0 4 9 7 19 7 11 0 26 7 35
15 8 8 26 15 40 15 14 0 26 5 26 10 0 6 9 10 20 10 11 0 23 7 26 15 4 9 19 15
40 15 19 0 34 4 34 9 0 5 18 11 40 15 22 3 40 11 40 16 0 6 19 10 43 10 23 0
51 7 61 15 11 8 37 15 58 15 21 0 38 5 38 10 0 6 26 10 59 10 33 0 71 7 87 15
18 9 57 15 102 15 41 0 72 4 72 10 0 6 35 10 83 11 45 0 118 6 162 14 57 9
215 13 543 14 l462 1 0 -320z"/>
<path d="M6760 4550 c0 -5 -15 -10 -32 -10 -18 0 -38 -4 -43 -8 -9 -6 -14
-448 -7 -554 l2 -28 290 0 290 0 0 285 c0 277 -1 286 -21 306 -17 17 -23 19
-31 8 -7 -11 -11 -11 -15 -1 -2 6 -22 12 -43 12 -21 0 -41 -6 -44 -12 -5 -10
-7 -10 -12 0 -3 6 -12 12 -19 12 -7 0 -16 -6 -19 -12 -5 -10 -7 -10 -12 0 -7
15 -134 17 -134 2 0 -5 -20 -10 -45 -10 -25 0 -45 5 -45 10 0 6 -13 10 -30 10
-16 0 -30 -4 -30 -10z"/>
<path d="M20140 4545 c0 -8 -4 -15 -10 -15 -6 0 -10 -103 -10 -290 l0 -290
295 0 295 0 0 288 c-1 223 -4 291 -14 305 -12 15 -38 17 -285 17 -234 0 -271
-2 -271 -15z"/>
<path d="M23460 4550 c0 -5 -11 -10 -25 -10 -21 0 -25 -5 -25 -30 0 -16 -4
-30 -10 -30 -6 0 -10 -45 -10 -115 0 -70 4 -115 10 -115 6 0 10 -11 10 -25 0
-14 -4 -25 -10 -25 -15 0 -12 -97 3 -104 10 -5 10 -7 0 -12 -9 -4 -13 -28 -13
-70 l0 -64 295 0 295 0 0 290 c0 187 -4 290 -10 290 -5 0 -10 7 -10 15 0 8 -7
15 -15 15 -8 0 -15 -4 -15 -10 0 -5 -9 -10 -20 -10 -11 0 -20 5 -20 10 0 15
-57 12 -64 -2 -5 -10 -7 -10 -12 0 -7 14 -74 17 -74 2 0 -14 -27 -12 -34 3 -5
10 -7 10 -12 0 -7 -15 -54 -17 -54 -3 0 6 -22 10 -50 10 -27 0 -50 -4 -50 -10
0 -5 -7 -10 -15 -10 -8 0 -15 5 -15 10 0 6 -11 10 -25 10 -14 0 -25 -4 -25
-10z"/>
<path d="M8103 4235 c-17 -18 -19 -2735 -3 -2735 6 0 10 -38 10 -94 0 -61 5
-106 15 -129 8 -20 15 -52 15 -72 0 -19 5 -35 10 -35 6 0 10 -7 10 -16 0 -24
33 -114 42 -114 5 0 8 -6 8 -14 0 -18 32 -76 43 -76 4 0 7 -5 7 -11 0 -7 11
-22 25 -35 14 -13 25 -27 25 -31 0 -15 69 -83 84 -83 9 0 16 -7 16 -15 0 -8 7
-15 15 -15 8 0 15 -4 15 -10 0 -5 9 -10 19 -10 10 0 21 -7 25 -15 3 -8 15 -15
26 -15 11 0 20 -4 20 -10 0 -5 13 -10 29 -10 16 0 36 -7 45 -15 8 -8 31 -15
50 -15 20 0 36 -4 36 -8 0 -10 197 -35 270 -34 86 0 300 25 300 34 0 4 23 8
50 8 38 0 50 4 50 15 0 8 5 15 10 15 6 0 10 82 10 225 l0 225 -25 6 c-13 3
-51 0 -82 -7 -114 -25 -411 -10 -433 21 -3 4 -15 10 -27 14 -13 4 -23 12 -23
17 0 5 -7 9 -15 9 -8 0 -15 5 -15 11 0 6 -6 17 -12 24 -32 36 -38 46 -38 65 0
11 -4 20 -9 20 -5 0 -11 22 -15 50 -4 27 -11 52 -16 55 -6 4 -10 287 -10 771
l0 764 325 0 325 0 0 240 0 240 -325 0 -325 0 0 391 c0 325 -2 393 -14 405
-21 21 -525 20 -543 -1z"/>
<path d="M21553 4235 c-17 -18 -19 -2535 -3 -2535 6 0 10 -16 10 -35 0 -19 -4
-35 -10 -35 -5 0 -10 -7 -10 -15 0 -8 4 -15 9 -15 4 0 11 -66 14 -147 3 -93 9
-149 16 -151 6 -2 11 -30 11 -68 0 -35 4 -64 9 -64 5 0 12 -18 16 -40 4 -22
11 -40 16 -40 5 0 9 -11 9 -25 0 -14 4 -25 10 -25 5 0 12 -11 16 -25 3 -14 10
-25 15 -25 5 0 9 -7 9 -15 0 -9 11 -26 25 -39 14 -13 25 -27 25 -31 0 -4 11
-18 25 -31 14 -13 25 -28 25 -34 0 -13 37 -50 50 -50 6 0 21 -11 34 -25 13
-14 33 -25 45 -25 12 0 21 -6 21 -15 0 -9 9 -15 25 -15 14 0 25 -4 25 -10 0
-5 10 -10 23 -10 13 0 32 -7 43 -15 10 -8 34 -15 52 -15 17 0 32 -4 32 -8 0
-5 51 -14 113 -21 61 -6 131 -14 155 -17 23 -4 48 -2 55 4 6 6 67 13 135 17
67 4 122 11 122 16 0 5 20 9 44 9 25 0 48 5 52 12 6 10 9 255 5 437 l-1 44
-60 -6 c-34 -4 -69 -11 -80 -17 -30 -16 -251 -13 -293 5 -20 8 -50 15 -67 15
-16 0 -30 4 -30 9 0 5 -11 12 -25 15 -14 4 -25 11 -25 16 0 6 -5 10 -11 10
-17 0 -39 27 -39 48 0 11 -7 22 -15 26 -8 3 -15 15 -15 26 0 11 -4 20 -10 20
-5 0 -10 22 -10 49 0 31 -5 51 -12 53 -10 4 -13 166 -13 769 l0 764 319 3
c241 2 322 5 328 15 9 14 11 428 2 451 -5 14 -44 16 -330 16 l-324 0 0 391 c0
325 -2 393 -14 405 -21 21 -525 20 -543 -1z"/>
<path d="M12750 3500 c0 -6 -63 -10 -169 -10 -103 0 -171 -4 -173 -10 -1 -5
-31 -13 -65 -16 -35 -4 -63 -11 -63 -15 0 -5 -21 -9 -46 -9 -27 0 -51 -6 -60
-15 -9 -8 -26 -15 -40 -15 -13 0 -24 -4 -24 -10 0 -5 -9 -10 -19 -10 -21 0
-84 -30 -89 -42 -2 -5 -12 -8 -23 -8 -11 0 -22 -7 -25 -15 -4 -8 -15 -15 -25
-15 -10 0 -19 -4 -19 -10 0 -5 -7 -10 -15 -10 -8 0 -15 -7 -15 -15 0 -9 -9
-15 -21 -15 -22 0 -49 -22 -49 -39 0 -6 -7 -11 -15 -11 -8 0 -15 -4 -15 -10 0
-5 4 -10 9 -10 5 0 12 -13 16 -30 4 -16 11 -30 16 -30 5 0 9 -11 9 -25 0 -14
4 -25 10 -25 5 0 12 -11 16 -25 3 -14 10 -25 15 -25 5 0 9 -9 9 -21 0 -23 30
-79 42 -79 4 0 8 -13 8 -29 0 -16 7 -34 15 -41 8 -7 15 -21 15 -31 0 -11 5
-19 10 -19 6 0 10 5 10 10 0 6 11 10 25 10 14 0 25 4 25 9 0 5 11 12 25 15 14
4 25 11 25 16 0 6 11 10 25 10 14 0 25 4 25 10 0 5 16 12 35 16 19 3 35 10 35
15 0 5 18 9 40 9 22 0 40 4 40 9 0 5 23 12 50 16 28 4 50 11 50 16 0 5 111 9
260 9 143 0 260 -4 260 -9 0 -5 18 -11 40 -15 22 -3 40 -11 40 -16 0 -6 15
-10 34 -10 21 0 36 -6 40 -15 3 -8 15 -15 26 -15 11 0 20 -4 20 -10 0 -5 7
-10 15 -10 8 0 15 -5 15 -11 0 -14 25 -39 39 -39 6 0 11 -7 11 -15 0 -8 4 -15
8 -15 5 0 17 -18 28 -40 10 -22 22 -40 25 -40 4 0 10 -20 13 -45 4 -24 11 -47
17 -50 5 -4 9 -39 9 -80 0 -49 4 -75 13 -79 10 -5 10 -7 0 -12 -15 -7 -17 -34
-3 -34 16 0 12 -119 -4 -136 -12 -12 -80 -14 -403 -14 -254 0 -402 -4 -428
-12 -22 -6 -70 -13 -107 -15 -38 -3 -68 -8 -68 -13 0 -4 -21 -10 -47 -13 -26
-3 -49 -10 -51 -16 -2 -6 -19 -11 -38 -11 -19 0 -34 -4 -34 -9 0 -5 -13 -12
-30 -16 -16 -4 -30 -11 -30 -16 0 -5 -9 -9 -20 -9 -19 0 -28 -5 -63 -36 -7 -6
-23 -15 -35 -18 -12 -4 -22 -12 -22 -17 0 -5 -4 -9 -10 -9 -5 0 -28 -18 -50
-40 -22 -22 -40 -44 -40 -50 0 -5 -7 -10 -15 -10 -9 0 -15 -9 -15 -21 0 -12
-11 -32 -25 -45 -14 -13 -25 -32 -25 -44 0 -11 -4 -20 -9 -20 -5 0 -12 -16
-15 -35 -4 -19 -11 -35 -16 -35 -6 0 -10 -18 -10 -40 0 -22 -4 -40 -10 -40 -5
0 -10 -19 -10 -42 0 -24 -7 -74 -15 -113 -8 -38 -15 -83 -15 -100 0 -17 7 -62
15 -100 8 -39 15 -89 15 -112 0 -24 5 -43 10 -43 6 0 10 -18 10 -40 0 -22 4
-40 10 -40 5 0 12 -11 16 -25 3 -14 10 -25 15 -25 5 0 9 -11 9 -24 0 -14 7
-31 15 -40 8 -8 15 -19 15 -25 0 -6 5 -11 10 -11 6 0 10 -5 10 -10 0 -22 114
-140 135 -140 8 0 15 -7 15 -15 0 -8 7 -15 15 -15 8 0 15 -4 15 -10 0 -5 11
-10 25 -10 14 0 25 -4 25 -10 0 -5 11 -12 25 -16 14 -3 25 -10 25 -15 0 -5 14
-9 31 -9 17 0 37 -7 45 -15 9 -8 33 -15 55 -15 21 0 39 -4 39 -9 0 -7 128 -23
202 -25 9 -1 20 -4 24 -8 11 -12 61 -9 147 7 43 8 101 15 128 15 27 0 49 5 49
10 0 6 18 10 39 10 22 0 46 7 55 15 8 8 28 15 45 15 17 0 31 4 31 9 0 5 11 12
25 15 14 4 25 11 25 16 0 6 7 10 15 10 8 0 15 5 15 10 0 6 11 10 25 10 16 0
25 6 25 15 0 8 7 15 15 15 9 0 26 11 39 25 13 14 28 25 35 25 6 0 11 5 11 11
0 14 25 39 39 39 6 0 11 5 11 10 0 13 50 70 62 70 4 0 8 -56 8 -124 0 -68 3
-131 6 -140 7 -17 54 -22 54 -6 0 6 9 10 20 10 11 0 20 -4 20 -10 0 -6 57 -10
150 -10 93 0 150 4 150 10 0 6 11 10 25 10 14 0 25 -4 25 -10 0 -5 23 -10 50
-10 l50 0 0 980 c0 647 -3 980 -10 980 -6 0 -10 26 -10 59 0 32 -7 75 -15 94
-8 20 -15 52 -15 72 0 19 -4 35 -10 35 -5 0 -10 16 -10 35 0 24 -5 35 -15 35
-10 0 -15 11 -15 35 0 19 -4 35 -9 35 -5 0 -12 8 -15 18 -13 32 -31 62 -38 62
-5 0 -8 7 -8 15 0 8 -4 15 -9 15 -5 0 -13 10 -16 21 -8 23 -60 79 -74 79 -5 0
-11 7 -15 15 -3 8 -12 15 -21 15 -8 0 -15 5 -15 10 0 6 -7 10 -15 10 -8 0 -15
7 -15 15 0 8 -9 15 -20 15 -11 0 -20 5 -20 10 0 6 -7 10 -15 10 -8 0 -15 4
-15 10 0 5 -11 12 -25 16 -14 3 -25 10 -25 14 0 4 -18 10 -40 14 -22 3 -40 11
-40 16 0 6 -18 10 -40 10 -22 0 -40 4 -40 9 0 4 -30 11 -67 14 -38 4 -69 11
-71 17 -2 6 -61 10 -153 10 -93 0 -149 4 -149 10 0 6 -7 10 -15 10 -8 0 -15
-4 -15 -10z m534 -1666 c13 -5 16 -23 16 -95 0 -53 -4 -89 -10 -89 -6 0 -10
-30 -10 -71 0 -49 -4 -75 -15 -85 -8 -9 -15 -26 -15 -40 0 -13 -4 -24 -10 -24
-5 0 -10 -11 -10 -24 0 -13 -7 -26 -15 -30 -8 -3 -15 -15 -15 -26 0 -11 -4
-20 -10 -20 -5 0 -10 -7 -10 -15 0 -8 -7 -15 -15 -15 -8 0 -15 -5 -15 -11 0
-14 -25 -39 -39 -39 -6 0 -11 -5 -11 -11 0 -15 -22 -35 -48 -43 -12 -4 -22
-12 -22 -17 0 -5 -7 -9 -15 -9 -8 0 -15 -4 -15 -10 0 -5 -8 -10 -17 -10 -10 0
-27 -7 -37 -15 -11 -8 -34 -15 -52 -15 -18 0 -34 -4 -36 -10 -1 -5 -31 -13
-65 -16 -35 -4 -63 -11 -63 -15 0 -5 -45 -9 -100 -9 -55 0 -100 4 -100 9 0 5
-22 12 -50 16 -27 4 -50 11 -50 16 0 5 -13 9 -29 9 -30 0 -91 29 -91 43 0 4
-7 7 -15 7 -8 0 -15 5 -15 11 0 7 -11 22 -25 35 -14 13 -25 32 -25 44 0 11 -4
20 -10 20 -5 0 -12 23 -16 50 -4 28 -10 50 -15 50 -5 0 -9 34 -9 75 0 41 4 75
9 75 5 0 12 23 16 50 4 28 11 50 16 50 5 0 9 9 9 21 0 26 102 129 129 129 11
0 26 7 35 15 8 8 31 15 50 15 20 0 36 4 36 10 0 5 35 11 78 13 145 6 710 7
726 1z"/>
<path d="M15880 3500 c0 -6 -44 -10 -111 -10 -85 0 -114 -3 -125 -15 -9 -8
-29 -15 -45 -15 -16 0 -29 -4 -29 -10 0 -5 -16 -10 -35 -10 -19 0 -35 -4 -35
-10 0 -5 -11 -12 -25 -16 -14 -3 -25 -10 -25 -15 0 -5 -11 -9 -25 -9 -16 0
-25 -6 -25 -15 0 -9 -9 -15 -21 -15 -12 0 -36 -16 -55 -35 -18 -19 -37 -35
-43 -35 -5 0 -21 -11 -35 -25 -14 -14 -30 -25 -36 -25 -5 0 -10 -5 -10 -11 0
-7 -15 -26 -34 -43 -18 -18 -37 -42 -40 -54 -4 -13 -16 -22 -27 -22 -18 0 -19
8 -19 149 0 82 -3 156 -6 165 -5 14 -38 16 -259 16 -139 0 -260 -3 -269 -6
-14 -6 -16 -135 -16 -1365 0 -1352 0 -1359 20 -1359 11 0 20 -4 20 -10 0 -5 7
-10 15 -10 8 0 15 5 15 10 0 6 11 10 25 10 14 0 25 -4 25 -10 0 -14 27 -12 34
3 5 9 7 9 12 0 3 -7 12 -13 19 -13 7 0 16 6 19 13 5 9 7 9 12 0 3 -7 12 -13
19 -13 7 0 16 6 19 13 5 9 7 9 12 0 7 -16 134 -18 134 -3 0 6 16 10 35 10 19
0 35 -4 35 -10 0 -5 11 -10 25 -10 14 0 25 5 25 10 0 6 7 10 15 10 13 0 15 97
15 815 0 537 3 815 10 815 6 0 10 28 10 64 0 37 6 76 15 92 8 16 15 39 15 52
0 12 5 22 10 22 6 0 10 9 10 19 0 22 31 81 43 81 4 0 7 9 7 20 0 12 11 31 25
44 14 13 25 26 25 30 0 11 27 36 39 36 6 0 11 7 11 15 0 8 5 15 10 15 10 0 22
8 55 38 7 6 18 12 24 12 6 0 11 4 11 9 0 5 11 12 25 15 14 4 25 11 25 16 0 6
16 10 35 10 19 0 35 4 35 9 0 5 25 13 55 16 30 4 55 11 55 16 0 5 38 9 85 9
47 0 85 -4 85 -9 0 -4 26 -11 57 -14 32 -3 59 -11 61 -17 2 -5 15 -10 29 -10
13 0 31 -6 38 -12 33 -30 45 -38 55 -38 5 0 10 -4 10 -9 0 -5 10 -13 21 -16
20 -7 79 -59 79 -71 0 -5 11 -20 38 -49 6 -7 12 -18 12 -23 0 -6 3 -12 8 -14
12 -5 42 -78 42 -103 0 -14 4 -25 9 -25 4 0 11 -31 14 -69 3 -39 11 -79 16
-90 8 -13 11 -289 11 -870 l0 -851 24 0 c13 0 27 6 30 13 5 9 7 9 12 0 7 -17
31 -17 38 0 5 9 7 9 12 0 3 -7 12 -13 19 -13 7 0 16 6 19 13 5 9 7 9 12 0 7
-15 34 -17 34 -3 0 6 11 10 25 10 14 0 25 -4 25 -10 0 -5 7 -10 15 -10 8 0 15
5 15 10 0 6 16 10 35 10 19 0 35 -4 35 -10 0 -5 7 -10 15 -10 8 0 15 5 15 10
0 6 9 10 20 10 11 0 20 -4 20 -10 0 -5 11 -10 25 -10 14 0 25 5 25 10 0 15 47
12 53 -2 4 -10 8 -9 16 2 7 10 11 315 11 978 0 833 -2 967 -15 999 -8 19 -15
55 -15 79 0 24 -4 44 -10 44 -5 0 -10 17 -10 38 0 21 -7 47 -15 58 -8 10 -15
29 -15 42 0 12 -4 22 -10 22 -5 0 -10 11 -10 24 0 14 -7 31 -15 40 -8 8 -15
24 -15 35 0 12 -4 21 -9 21 -5 0 -12 11 -15 25 -4 14 -11 25 -16 25 -6 0 -10
7 -10 15 0 8 -4 15 -10 15 -5 0 -10 5 -10 11 0 14 -25 39 -39 39 -6 0 -11 11
-11 25 0 14 -5 25 -10 25 -12 0 -25 10 -70 53 -15 15 -33 27 -39 27 -6 0 -11
3 -11 8 0 4 -16 16 -35 26 -19 11 -35 23 -35 28 0 4 -10 8 -23 8 -13 0 -32 7
-43 15 -10 8 -29 15 -41 15 -13 0 -23 4 -23 9 0 4 -21 11 -47 14 -26 3 -49 10
-51 16 -2 7 -45 11 -123 11 -73 0 -119 4 -119 10 0 6 -11 10 -25 10 -14 0 -25
-4 -25 -10z"/>
<path d="M18370 3500 c0 -6 -40 -10 -99 -10 -63 0 -101 -4 -103 -11 -2 -6 -25
-13 -51 -16 -26 -3 -47 -10 -47 -14 0 -5 -16 -9 -35 -9 -19 0 -35 -4 -35 -9 0
-5 -13 -12 -30 -16 -16 -4 -30 -11 -30 -16 0 -5 -6 -9 -14 -9 -17 0 -80 -32
-84 -42 -2 -5 -12 -8 -22 -8 -10 0 -20 -7 -24 -15 -3 -8 -12 -15 -21 -15 -8 0
-31 -16 -49 -35 -19 -19 -39 -35 -45 -35 -6 0 -11 -5 -11 -11 0 -6 -22 -33
-50 -60 -27 -27 -50 -56 -50 -64 0 -8 -4 -15 -10 -15 -5 0 -10 -6 -10 -14 0
-8 -7 -16 -15 -20 -8 -3 -15 -15 -15 -26 0 -11 -4 -20 -10 -20 -5 0 -10 -10
-10 -22 0 -13 -7 -32 -15 -42 -8 -11 -15 -30 -15 -43 0 -13 -4 -23 -9 -23 -9
0 -20 -105 -22 -220 -2 -91 12 -240 22 -240 5 0 9 -13 9 -29 0 -29 27 -93 43
-99 4 -2 7 -15 7 -28 0 -13 4 -24 10 -24 5 0 12 -11 16 -25 3 -14 10 -25 15
-25 5 0 9 -5 9 -10 0 -12 13 -29 53 -68 58 -57 76 -72 87 -72 5 0 10 -7 10
-15 0 -8 7 -15 15 -15 8 0 15 -4 15 -10 0 -5 11 -10 25 -10 16 0 25 -6 25 -15
0 -9 9 -15 25 -15 14 0 25 -4 25 -9 0 -5 16 -12 35 -15 19 -4 35 -11 35 -16 0
-6 22 -10 49 -10 27 0 51 -4 53 -10 2 -5 47 -12 101 -16 53 -4 97 -11 97 -15
0 -5 45 -9 99 -9 58 0 101 -4 103 -10 2 -6 54 -13 116 -17 61 -3 112 -10 112
-15 0 -4 27 -8 60 -8 33 0 60 -4 60 -10 0 -5 16 -12 35 -16 19 -3 35 -10 35
-14 0 -4 11 -11 24 -14 30 -7 121 -94 130 -123 4 -13 12 -23 17 -23 5 0 9 -56
9 -130 0 -71 -4 -130 -9 -130 -5 0 -12 -11 -15 -25 -4 -14 -11 -25 -16 -25 -6
0 -10 -11 -10 -25 0 -14 -5 -25 -11 -25 -6 0 -17 -6 -24 -12 -31 -28 -44 -38
-50 -38 -4 0 -13 -7 -21 -15 -9 -8 -26 -15 -40 -15 -13 0 -24 -4 -24 -10 0 -5
-12 -10 -27 -10 -16 -1 -39 -7 -53 -15 -16 -9 -54 -14 -102 -15 -45 0 -78 -4
-78 -10 0 -6 -47 -10 -120 -10 -73 0 -120 4 -120 10 0 6 -37 10 -90 10 -50 0
-90 4 -90 10 0 5 -27 12 -60 16 -33 4 -60 11 -60 15 0 5 -17 9 -38 9 -21 0
-47 7 -58 15 -10 8 -34 15 -51 15 -18 0 -33 5 -33 10 0 6 -11 10 -24 10 -14 0
-31 7 -40 15 -8 8 -26 15 -39 15 -14 0 -27 4 -29 9 -1 5 -18 12 -35 16 -26 5
-33 3 -33 -9 0 -9 -4 -16 -9 -16 -5 0 -11 -18 -15 -40 -3 -22 -11 -40 -16 -40
-6 0 -10 -16 -10 -35 0 -19 -4 -35 -10 -35 -5 0 -10 -10 -10 -22 0 -13 -7 -32
-15 -42 -8 -11 -15 -30 -15 -43 0 -13 -4 -23 -10 -23 -5 0 -10 -16 -10 -36 0
-19 -7 -42 -15 -50 -8 -9 -15 -22 -15 -30 0 -8 7 -14 15 -14 8 0 15 -4 15 -10
0 -5 11 -12 25 -16 14 -3 25 -10 25 -15 0 -5 9 -9 21 -9 11 0 27 -7 35 -15 9
-8 26 -15 40 -15 13 0 24 -4 24 -10 0 -5 17 -10 38 -10 20 -1 48 -7 62 -15 14
-8 42 -14 63 -15 20 0 37 -4 37 -10 0 -5 22 -10 49 -10 29 0 51 -5 53 -12 3
-7 32 -14 74 -16 38 -3 72 -9 76 -15 10 -16 560 -15 566 1 2 7 24 12 55 12 29
1 63 7 77 15 14 8 42 14 63 15 20 0 37 5 37 10 0 6 11 10 24 10 14 0 31 7 40
15 8 8 26 15 40 15 14 0 26 5 26 10 0 6 9 10 20 10 11 0 23 7 26 15 4 8 15 15
25 15 10 0 19 4 19 9 0 5 11 12 25 15 14 4 25 11 25 16 0 6 5 10 11 10 6 0 17
6 24 12 29 26 44 38 49 38 10 0 116 110 116 120 0 5 7 10 15 10 8 0 15 7 15
15 0 8 5 15 10 15 6 0 10 9 10 19 0 10 7 21 15 25 8 3 15 15 15 26 0 11 4 20
9 20 5 0 12 13 16 30 4 16 11 30 16 30 5 0 9 11 9 25 0 14 5 25 10 25 6 0 10
17 10 38 1 20 7 48 15 62 17 29 22 330 6 330 -5 0 -13 25 -16 55 -4 30 -11 55
-16 55 -5 0 -9 16 -9 35 0 19 -4 35 -9 35 -5 0 -12 11 -15 25 -4 14 -11 25
-16 25 -6 0 -10 11 -10 25 0 14 -4 25 -10 25 -5 0 -12 11 -16 25 -3 14 -10 25
-15 25 -5 0 -9 7 -9 15 0 8 -5 15 -11 15 -14 0 -39 25 -39 39 0 6 -5 11 -11
11 -14 0 -39 25 -39 39 0 6 -11 11 -25 11 -16 0 -25 6 -25 15 0 8 -7 15 -15
15 -8 0 -15 5 -15 10 0 6 -9 10 -19 10 -10 0 -21 7 -25 15 -3 8 -17 15 -31 15
-14 0 -25 5 -25 10 0 6 -16 10 -35 10 -24 0 -35 5 -35 15 0 12 -13 15 -60 15
-33 0 -60 4 -60 10 0 6 -32 10 -76 10 -41 0 -85 5 -97 12 -12 6 -70 14 -129
16 -60 3 -108 8 -108 12 0 4 -53 10 -117 13 -70 3 -119 10 -121 16 -2 6 -26
11 -53 11 -27 0 -49 4 -49 9 0 5 -18 11 -40 15 -22 3 -40 11 -40 16 0 6 -7 10
-15 10 -9 0 -26 11 -39 25 -13 14 -28 25 -35 25 -6 0 -11 7 -11 15 0 8 -4 15
-10 15 -5 0 -12 11 -16 25 -3 14 -10 25 -15 25 -5 0 -9 52 -9 115 0 69 4 115
10 115 5 0 12 11 16 25 3 14 10 25 15 25 5 0 9 5 9 11 0 14 25 39 39 39 6 0
11 5 11 11 0 14 25 39 39 39 6 0 11 4 11 10 0 5 16 12 35 16 19 3 35 10 35 15
0 5 18 9 39 9 23 0 41 5 43 13 3 8 37 13 111 15 59 2 107 8 107 13 0 5 23 9
50 9 28 0 50 -4 50 -9 0 -4 46 -11 102 -13 64 -3 103 -9 106 -17 2 -6 27 -11
63 -11 32 0 59 -4 59 -9 0 -5 23 -12 50 -16 28 -4 50 -11 50 -16 0 -5 16 -9
36 -9 19 0 42 -7 50 -15 9 -8 26 -15 40 -15 13 0 24 -4 24 -10 0 -5 11 -10 24
-10 13 0 27 -6 30 -12 5 -10 7 -10 12 0 3 7 12 19 20 26 8 8 14 24 14 35 0 12
4 21 9 21 5 0 12 14 16 30 4 17 11 30 16 30 5 0 9 11 9 25 0 14 5 25 10 25 6
0 10 9 10 20 0 11 7 23 15 26 8 4 15 17 15 30 0 13 5 24 10 24 6 0 10 9 10 21
0 11 7 27 15 35 8 9 15 29 15 45 0 16 5 29 10 29 6 0 10 5 10 10 0 6 -11 10
-25 10 -14 0 -25 4 -25 10 0 5 -11 12 -25 16 -14 3 -25 10 -25 15 0 5 -11 9
-24 9 -14 0 -31 7 -40 15 -8 8 -28 15 -45 15 -17 0 -31 4 -31 9 0 5 -18 11
-40 15 -22 3 -40 11 -40 16 0 6 -22 10 -50 10 -27 0 -50 4 -50 9 0 5 -28 11
-62 13 -35 3 -64 10 -66 16 -2 8 -41 12 -123 12 -73 0 -119 4 -119 10 0 6 -53
10 -140 10 -87 0 -140 -4 -140 -10z"/>
<path d="M25760 3500 c0 -6 -45 -10 -115 -10 -67 0 -115 -4 -115 -10 0 -5 -22
-12 -50 -16 -27 -4 -50 -10 -50 -15 0 -5 -18 -9 -39 -9 -22 0 -42 -4 -46 -9
-3 -5 -19 -12 -35 -16 -17 -4 -30 -11 -30 -16 0 -5 -16 -9 -35 -9 -24 0 -35
-5 -35 -15 0 -9 -9 -15 -25 -15 -14 0 -25 -4 -25 -9 0 -5 -11 -12 -25 -15 -14
-4 -25 -11 -25 -16 0 -6 -5 -10 -11 -10 -6 0 -17 -6 -24 -12 -31 -28 -44 -38
-50 -38 -11 0 -165 -158 -165 -169 0 -6 -5 -11 -11 -11 -16 0 -39 -26 -39 -45
0 -9 -11 -26 -25 -39 -14 -13 -25 -33 -25 -45 0 -11 -4 -21 -10 -21 -5 0 -12
-11 -16 -25 -3 -14 -10 -25 -15 -25 -5 0 -9 -11 -9 -25 0 -14 -4 -25 -9 -25
-5 0 -12 -11 -15 -25 -4 -14 -11 -25 -16 -25 -6 0 -10 -18 -10 -40 0 -22 -4
-40 -10 -40 -5 0 -13 -18 -16 -40 -4 -22 -10 -40 -15 -40 -5 0 -9 -33 -9 -74
0 -51 -4 -76 -12 -79 -19 -6 -19 -808 0 -815 8 -2 12 -26 12 -73 0 -38 4 -69
9 -69 5 0 12 -20 15 -45 4 -25 11 -45 17 -45 5 0 9 -16 9 -35 0 -19 4 -35 10
-35 5 0 12 -16 16 -35 3 -19 10 -35 15 -35 5 0 9 -11 9 -25 0 -14 5 -25 10
-25 6 0 10 -7 10 -15 0 -9 7 -18 15 -21 8 -4 15 -15 15 -25 0 -10 4 -19 9 -19
5 0 12 -11 15 -25 4 -14 11 -25 16 -25 6 0 10 -5 10 -11 0 -7 11 -22 25 -35
14 -13 25 -30 25 -38 0 -9 11 -18 25 -22 14 -3 25 -13 25 -20 0 -16 66 -84 82
-84 6 0 21 -11 34 -25 13 -14 28 -25 34 -25 6 0 21 -11 34 -25 13 -14 33 -25
45 -25 12 0 21 -6 21 -15 0 -9 9 -15 25 -15 14 0 25 -4 25 -10 0 -5 9 -10 21
-10 11 0 27 -7 35 -15 9 -8 26 -15 40 -15 13 0 24 -4 24 -10 0 -5 13 -10 29
-10 16 0 36 -7 45 -15 9 -9 33 -15 60 -15 25 0 46 -4 46 -8 0 -10 199 -35 275
-34 92 1 295 25 295 34 0 4 17 8 38 8 21 0 47 7 58 15 10 8 34 15 52 15 17 0
32 5 32 10 0 6 11 10 24 10 14 0 31 7 40 15 8 8 24 15 35 15 12 0 21 4 21 9 0
5 11 12 25 15 14 4 25 11 25 16 0 6 9 10 20 10 12 0 31 11 44 25 13 14 27 25
32 25 5 0 21 11 36 25 15 14 32 25 38 25 5 0 10 5 10 11 0 11 25 39 35 39 10
0 35 28 35 39 0 6 7 11 15 11 8 0 15 5 15 11 0 6 15 25 34 42 18 18 36 42 40
55 4 12 12 22 17 22 5 0 9 7 9 15 0 8 5 15 10 15 6 0 10 9 10 20 0 11 7 23 15
26 8 4 15 17 15 30 0 13 5 24 10 24 6 0 10 9 10 20 0 11 7 23 15 26 8 4 15 17
15 30 0 13 5 24 10 24 6 0 10 15 10 33 0 17 7 41 15 51 8 11 15 32 15 48 0 15
5 28 10 28 6 0 10 31 10 74 0 51 4 76 13 78 9 4 12 93 12 403 0 310 -3 399
-12 402 -9 3 -13 26 -13 69 0 35 -4 64 -9 64 -4 0 -11 21 -14 47 -3 26 -10 49
-16 51 -6 2 -11 17 -11 33 0 16 -4 29 -10 29 -5 0 -10 11 -10 24 0 14 -7 31
-15 40 -8 8 -15 24 -15 35 0 12 -4 21 -10 21 -5 0 -10 11 -10 25 0 16 -6 25
-15 25 -9 0 -15 9 -15 21 0 12 -11 32 -25 45 -14 13 -25 30 -25 39 0 8 -4 15
-10 15 -5 0 -10 7 -10 15 0 8 -7 15 -15 15 -8 0 -15 5 -15 11 0 13 -158 169
-171 169 -6 0 -20 11 -32 24 -12 13 -32 26 -44 30 -13 4 -23 12 -23 17 0 5 -7
9 -15 9 -8 0 -15 5 -15 10 0 6 -9 10 -21 10 -11 0 -27 7 -35 15 -9 8 -26 15
-39 15 -13 0 -25 3 -27 8 -7 17 -72 42 -109 42 -21 0 -39 4 -39 9 0 5 -22 11
-50 15 -27 4 -50 11 -50 16 0 6 -44 10 -104 10 -74 0 -106 4 -110 13 -5 10 -7
10 -12 0 -7 -15 -44 -17 -44 -3 0 6 -7 10 -15 10 -8 0 -15 -4 -15 -10z m130
-479 c0 -5 26 -11 57 -13 31 -3 59 -10 61 -16 2 -7 19 -12 38 -12 19 0 34 -4
34 -9 0 -5 11 -12 25 -15 14 -4 25 -11 25 -16 0 -6 5 -10 11 -10 21 0 169
-148 169 -170 0 -5 4 -10 9 -10 5 0 12 -11 15 -25 4 -14 11 -25 16 -25 6 0 10
-11 10 -25 0 -14 5 -25 10 -25 6 0 10 -10 10 -23 0 -13 7 -32 15 -43 8 -10 15
-40 15 -66 0 -28 5 -48 13 -51 17 -5 17 -829 -1 -835 -7 -2 -12 -21 -12 -42 0
-21 -7 -45 -15 -54 -8 -8 -15 -24 -15 -35 0 -12 -4 -21 -10 -21 -5 0 -10 -11
-10 -24 0 -13 -7 -29 -15 -36 -8 -7 -15 -19 -15 -26 0 -8 -4 -14 -10 -14 -5 0
-10 -7 -10 -15 0 -8 -4 -15 -9 -15 -5 0 -12 -9 -16 -20 -6 -19 -61 -80 -71
-80 -3 0 -12 -6 -19 -13 -33 -29 -45 -37 -55 -37 -5 0 -10 -4 -10 -10 0 -5
-11 -12 -25 -16 -14 -3 -25 -10 -25 -15 0 -5 -10 -9 -22 -9 -13 -1 -34 -7 -48
-15 -14 -8 -52 -14 -87 -15 -35 0 -63 -4 -63 -10 0 -6 -28 -10 -65 -10 -37 0
-65 4 -65 10 0 6 -30 10 -70 10 -38 0 -70 4 -70 9 0 5 -13 12 -30 16 -16 4
-30 11 -30 16 0 5 -11 9 -24 9 -14 0 -31 7 -40 15 -8 8 -17 15 -21 15 -6 0
-19 10 -50 38 -7 6 -18 12 -24 12 -6 0 -11 5 -11 11 0 14 -25 39 -39 39 -6 0
-11 11 -11 25 0 16 -6 25 -15 25 -8 0 -15 7 -15 15 0 8 -4 15 -10 15 -5 0 -10
9 -10 19 0 10 -7 21 -15 25 -8 3 -15 15 -15 26 0 11 -4 20 -10 20 -5 0 -10 14
-10 30 0 17 -4 30 -9 30 -5 0 -12 22 -16 50 -4 27 -11 50 -16 50 -5 0 -9 95
-9 219 0 166 -3 221 -12 225 -10 5 -10 7 0 12 9 4 12 55 12 205 0 109 4 199 9
199 5 0 12 25 16 55 3 30 11 55 16 55 5 0 9 11 9 25 0 14 4 25 9 25 5 0 12 11
15 25 4 14 11 25 16 25 6 0 10 11 10 25 0 14 4 25 10 25 5 0 12 11 16 25 3 14
10 25 15 25 5 0 9 5 9 11 0 14 25 39 39 39 6 0 11 7 11 15 0 8 5 15 11 15 6 0
17 6 24 13 35 31 45 37 60 37 9 0 26 11 39 25 15 16 34 25 54 25 17 0 32 5 34
12 2 6 30 13 61 16 31 2 57 8 57 13 0 5 43 9 95 9 52 0 95 -4 95 -9z"/>
<path d="M11102 3475 c-7 -8 -26 -15 -42 -15 -17 0 -30 -4 -30 -10 0 -5 -9
-10 -21 -10 -11 0 -27 -7 -35 -15 -9 -8 -26 -15 -40 -15 -13 0 -24 -4 -24 -10
0 -5 -7 -10 -15 -10 -8 0 -15 -4 -15 -10 0 -5 -11 -12 -25 -16 -14 -3 -25 -10
-25 -15 0 -5 -7 -9 -15 -9 -9 0 -18 -7 -21 -15 -4 -8 -11 -15 -16 -15 -10 0
-198 -187 -198 -196 0 -3 -6 -12 -12 -19 -30 -33 -38 -45 -38 -55 0 -5 -4 -10
-10 -10 -6 0 -10 70 -10 189 0 104 -3 196 -6 205 -5 14 -38 16 -259 16 -139 0
-260 -3 -269 -6 -14 -6 -16 -135 -16 -1365 0 -1166 2 -1359 14 -1359 8 0 17
-6 19 -12 4 -10 8 -9 17 2 9 11 13 12 17 3 6 -17 30 -17 37 0 5 9 7 9 12 0 7
-15 34 -17 34 -3 0 6 11 10 25 10 14 0 25 -4 25 -10 0 -5 7 -10 15 -10 8 0 15
5 15 10 0 6 16 10 35 10 19 0 35 -4 35 -10 0 -5 7 -10 15 -10 8 0 15 5 15 10
0 6 9 10 20 10 11 0 20 -4 20 -10 0 -5 14 -10 30 -10 17 0 30 5 30 10 0 6 9
10 20 10 11 0 20 -4 20 -10 0 -5 12 -10 26 -10 56 0 54 -32 54 739 0 467 3
711 10 711 14 0 12 27 -2 34 -10 5 -10 7 0 12 8 4 12 30 12 77 1 47 6 79 15
91 8 11 15 35 15 53 0 18 5 33 10 33 6 0 10 14 10 30 0 17 4 30 10 30 5 0 12
11 16 25 3 14 10 25 15 25 5 0 9 11 9 25 0 16 6 25 15 25 8 0 15 7 15 15 0 8
5 15 10 15 6 0 10 7 10 16 0 10 23 39 50 65 28 26 50 53 50 58 0 6 5 11 11 11
6 0 25 16 43 35 19 19 41 35 50 35 9 0 19 7 22 15 4 8 17 15 30 15 13 0 24 5
24 10 0 6 9 10 20 10 11 0 23 7 26 15 5 11 22 15 65 15 33 0 59 4 59 10 0 6
40 10 100 10 l100 0 0 270 0 270 -107 0 c-82 -1 -111 -4 -121 -15z"/>
<path d="M28758 3479 c-2 -5 -22 -13 -46 -16 -23 -3 -42 -10 -42 -14 0 -5 -16
-9 -35 -9 -19 0 -35 -4 -35 -10 0 -5 -11 -12 -25 -16 -14 -3 -25 -10 -25 -15
0 -5 -11 -9 -25 -9 -14 0 -25 -4 -25 -9 0 -5 -10 -13 -22 -17 -12 -3 -28 -12
-35 -18 -30 -27 -43 -36 -48 -36 -11 0 -115 -108 -115 -119 0 -6 -5 -11 -11
-11 -14 0 -39 -25 -39 -39 0 -6 -4 -11 -9 -11 -5 0 -13 -9 -16 -20 -17 -54
-25 -6 -25 155 l0 175 -272 -2 -273 -3 -3 -1350 c-1 -742 0 -1360 3 -1372 4
-18 12 -23 40 -23 19 0 35 5 35 10 0 6 16 10 35 10 19 0 35 -4 35 -10 0 -14
47 -12 54 3 5 9 7 9 12 0 7 -15 64 -18 64 -3 0 6 9 10 20 10 11 0 20 -4 20
-10 0 -5 18 -10 40 -10 22 0 40 5 40 10 0 6 11 10 25 10 14 0 25 -4 25 -10 0
-5 7 -10 15 -10 8 0 15 5 15 10 0 6 16 10 35 10 l35 0 0 855 c0 504 4 855 9
855 5 0 12 23 16 50 4 28 11 50 16 50 5 0 9 18 9 40 0 22 4 40 10 40 5 0 12
11 16 25 3 14 10 25 15 25 5 0 9 5 9 11 0 6 6 17 13 24 27 31 37 44 37 51 0 4
11 17 25 30 14 13 25 26 25 29 0 8 27 35 35 35 3 0 18 11 33 25 15 14 32 25
39 25 7 0 13 4 13 9 0 5 11 12 25 15 14 4 25 11 25 16 0 6 14 10 30 10 17 0
30 4 30 10 0 5 23 12 50 16 28 4 50 10 50 15 0 5 43 9 95 9 52 0 95 -4 95 -9
0 -5 23 -11 52 -13 29 -3 54 -11 56 -17 2 -6 19 -11 38 -11 24 0 34 -5 34 -15
0 -9 9 -15 25 -15 14 0 25 -4 25 -10 0 -5 5 -10 10 -10 12 0 23 -9 72 -56 37
-35 56 -61 64 -86 4 -10 10 -18 15 -18 5 0 9 -9 9 -20 0 -11 7 -23 15 -26 8
-4 15 -17 15 -30 0 -13 5 -24 10 -24 6 0 10 -15 10 -32 0 -18 7 -42 15 -52 10
-14 15 -45 15 -103 0 -49 4 -83 10 -83 7 0 10 -280 10 -820 0 -701 2 -820 14
-820 8 0 17 -6 20 -12 5 -10 7 -10 12 0 7 14 54 16 54 2 0 -5 11 -10 25 -10
14 0 25 5 25 10 0 6 11 10 25 10 14 0 25 -4 25 -10 0 -5 11 -10 25 -10 14 0
25 5 25 10 0 14 27 12 34 -2 5 -10 7 -10 12 0 3 6 12 12 19 12 7 0 16 -6 19
-12 5 -10 7 -10 12 0 3 6 12 12 19 12 7 0 16 -6 19 -12 5 -10 7 -10 12 0 7 14
104 17 104 2 0 -15 19 -12 36 4 12 12 14 153 14 955 0 621 -3 941 -10 941 -6
0 -10 30 -10 69 0 38 -7 84 -15 104 -8 20 -15 52 -15 72 0 19 -4 35 -10 35 -5
0 -10 10 -10 23 0 13 -7 32 -15 43 -8 10 -15 29 -15 42 0 12 -4 22 -10 22 -5
0 -10 9 -10 20 0 11 -7 23 -15 26 -8 4 -15 17 -15 30 0 13 -4 24 -10 24 -5 0
-10 5 -10 11 0 6 -6 17 -12 24 -30 33 -38 45 -38 55 0 5 -7 10 -15 10 -8 0
-15 5 -15 10 0 14 -75 90 -89 90 -6 0 -11 7 -11 15 0 8 -7 15 -15 15 -8 0 -15
5 -15 10 0 6 -9 10 -20 10 -11 0 -20 7 -20 15 0 9 -9 15 -25 15 -14 0 -25 4
-25 9 0 5 -11 12 -25 15 -14 4 -25 11 -25 16 0 6 -18 10 -40 10 -22 0 -40 4
-40 9 0 5 -20 12 -45 15 -25 4 -45 11 -45 17 0 13 -497 12 -502 -2z"/>
<path d="M6690 2065 l0 -1375 40 0 c22 0 40 5 40 10 0 6 30 10 70 10 40 0 70
-4 70 -10 0 -5 14 -10 30 -10 17 0 30 5 30 10 0 6 9 10 20 10 11 0 20 -4 20
-10 0 -6 43 -10 110 -10 105 0 110 1 115 23 3 12 4 630 3 1372 l-3 1350 -272
3 -273 2 0 -1375z"/>
<path d="M20146 3424 c-8 -20 -8 -2698 0 -2718 5 -12 21 -16 65 -16 33 0 59 4
59 10 0 6 11 10 25 10 14 0 25 -4 25 -10 0 -5 16 -10 35 -10 19 0 35 5 35 10
0 6 23 10 50 10 28 0 50 -4 50 -10 0 -5 11 -10 25 -10 14 0 25 5 25 10 0 6 7
10 15 10 8 0 15 -4 15 -10 0 -5 16 -10 35 -10 19 0 35 5 35 10 0 6 11 10 25
10 l25 0 0 1365 0 1365 -269 0 c-236 0 -270 -2 -275 -16z"/>
<path d="M23422 3428 c-9 -9 -12 -326 -12 -1365 l0 -1353 50 0 c28 0 50 -4 50
-10 0 -14 27 -12 34 3 5 9 7 9 12 0 7 -15 54 -17 54 -3 0 14 27 12 34 -2 5
-10 7 -10 12 0 7 15 154 17 154 2 0 -14 47 -12 54 3 5 9 7 9 12 0 3 -7 23 -13
45 -13 l39 0 0 1375 0 1375 -263 0 c-191 0 -266 -3 -275 -12z"/>
</g>
</svg>
